{"title":"Passion (Jean-Luc Godard, 1982)","uid":9325647,"size":1701763119,"categoryP":"video","categoryS":"movies","magnet":"?xt=urn:btih:c0bd615092fcbe88dbebe72440ef624f52c45b44&amp;dn=Passion+%28Jean-Luc+Godard%2C+1982%29&amp;tr=udp%3A%2F%2Ftracker.openbittorrent.com%3A80&amp;tr=udp%3A%2F%2Fopen.demonii.com%3A1337&amp;tr=udp%3A%2F%2Ftracker.coppersurfer.tk%3A6969&amp;tr=udp%3A%2F%2Fexodus.desync.com%3A6969","seeders":1,"leechers":0,"uploader":"moonflux","files":1,"time":1386626943,"description":"On a movie set, in a factory, and at a hotel, Godard explores the nature of work, love and film making. While Solidarity takes on the Polish government, a Polish film director, Jerzy, is stuck in France making a film for TV. He's over budget and uninspired; the film, called &quot;Passion,&quot; seems static and bloodless. Hanna owns the hotel where the film crew stays. She lives with Michel, who runs a factory where he's fired Isabelle, a floor worker. Hanna and Isabelle are drawn to Jerzy, hotel maids quit to be movie extras, people ask Jerzy where the story is in his film, women disrobe, extras grope each other off camera, and Jerzy wonders why there must always be a story. \n\nGeneral\nUnique ID                                : 198569320007808492629705543414472597846 (0x95630F587CD933FB8A598BC9F5756156)\nComplete name                            : Passion.1982.DVDRip.x264-HANDJOB.mkv\nFormat                                   : Matroska\nFormat version                           : Version 4 / Version 2\nFile size                                : 1.58 GiB\nDuration                                 : 1h 24mn\nOverall bit rate                         : 2 692 Kbps\nMovie name                               : Passion\nEncoded date                             : UTC 2013-09-11 01:28:46\nWriting application                      : mkvmerge v6.3.0 ('You can't stop me!') built on Jun 28 2013 20:09:41\nWriting library                          : libebml v1.3.0 + libmatroska v1.4.0\n\nVideo\nID                                       : 1\nFormat                                   : AVC\nFormat/Info                              : Advanced Video Codec\nFormat profile                           : &lt;a class=&quot;__cf_email__&quot; href=&quot;/cdn-cgi/l/email-protection&quot; data-cfemail=&quot;226a4b454a626e160c12&quot;&gt;[email&amp;#160;protected]&lt;/a&gt;&lt;script data-cfhash='f9e31' type=&quot;text/javascript&quot;&gt;\n/* &lt;![CDATA[ */!function(){try{var t=&quot;currentScript&quot;in document?document.currentScript:function(){for(var t=document.getElementsByTagName(&quot;script&quot;),e=t.length;e--;)if(t[e].getAttribute(&quot;data-cfhash&quot;))return t[e]}();if(t&amp;&amp;t.previousSibling){var e,r,n,i,c=t.previousSibling,a=c.getAttribute(&quot;data-cfemail&quot;);if(a){for(e=&quot;&quot;,r=parseInt(a.substr(0,2),16),n=2;a.length-n;n+=2)i=parseInt(a.substr(n,2),16)^r,e+=String.fromCharCode(i);e=document.createTextNode(e),c.parentNode.replaceChild(e,c)}t.parentNode.removeChild(t);}}catch(u){}}()/* ]]&gt; */&lt;/script&gt;\nFormat settings, CABAC                   : Yes\nFormat settings, ReFrames                : 16 frames\nCodec ID                                 : V_MPEG4/ISO/AVC\nDuration                                 : 1h 24mn\nBit rate                                 : 2 382 Kbps\nWidth                                    : 759 pixels\nHeight                                   : 568 pixels\nDisplay aspect ratio                     : 4:3\nOriginal display aspect ratio            : 4:3\nFrame rate mode                          : Constant\nFrame rate                               : 25.000 fps\nColor space                              : YUV\nChroma subsampling                       : 4:2:0\nBit depth                                : 8 bits\nScan type                                : Progressive\nBits/(Pixel*Frame)                       : 0.236\nStream size                              : 1.40 GiB (88%)\nWriting library                          : x264 core 130 r2273 b3065e6\nEncoding settings                        : cabac=1 / ref=16 / deblock=1:-3:-3 / analyse=0x3:0x133 / me=umh / subme=11 / psy=1 / psy_rd=1.00:0.00 / mixed_ref=1 / me_range=64 / chroma_me=1 / trellis=2 / 8x8dct=1 / cqm=0 / deadzone=21,11 / fast_pskip=0 / chroma_qp_offset=-2 / threads=12 / lookahead_threads=2 / sliced_threads=0 / nr=0 / decimate=1 / interlaced=0 / bluray_compat=0 / constrained_intra=0 / bframes=9 / b_pyramid=2 / b_adapt=2 / b_bias=0 / direct=3 / weightb=1 / open_gop=0 / weightp=2 / keyint=250 / keyint_min=25 / scenecut=40 / intra_refresh=0 / rc_lookahead=250 / rc=crf / mbtree=1 / crf=18.3 / qcomp=0.60 / qpmin=0 / qpmax=69 / qpstep=4 / ip_ratio=1.40 / aq=2:1.00\nLanguage                                 : English\nDefault                                  : Yes\nForced                                   : No\nColor primaries                          : BT.601 PAL\nTransfer characteristics                 : BT.709\nMatrix coefficients                      : BT.601\n\nAudio\nID                                       : 2\nFormat                                   : AC-3\nFormat/Info                              : Audio Coding 3\nMode extension                           : CM (complete main)\nFormat settings, Endianness              : Big\nCodec ID                                 : A_AC3\nDuration                                 : 1h 24mn\nBit rate mode                            : Constant\nBit rate                                 : 256 Kbps\nChannel(s)                               : 2 channels\nChannel positions                        : Front: L R\nSampling rate                            : 48.0 KHz\nBit depth                                : 16 bits\nCompression mode                         : Lossy\nStream size                              : 154 MiB (10%)\nTitle                                    : French Audio\nLanguage                                 : French\nDefault                                  : Yes\nForced                                   : No\n\nText\nID                                       : 3\nFormat                                   : UTF-8\nCodec ID                                 : S_TEXT/UTF8\nCodec ID/Info                            : UTF-8 Plain Text\nTitle                                    : English Subtitles\nLanguage                                 : English\nDefault                                  : Yes\nForced                                   : No\n","torrent":{"xt":"urn:btih:c0bd615092fcbe88dbebe72440ef624f52c45b44","amp;dn":"Passion+%28Jean-Luc+Godard%2C+1982%29","amp;tr":["udp%3A%2F%2Ftracker.openbittorrent.com%3A80","udp%3A%2F%2Fopen.demonii.com%3A1337","udp%3A%2F%2Ftracker.coppersurfer.tk%3A6969","udp%3A%2F%2Fexodus.desync.com%3A6969"],"infoHash":"c0bd615092fcbe88dbebe72440ef624f52c45b44","infoHashBuffer":{"type":"Buffer","data":[192,189,97,80,146,252,190,136,219,235,231,36,64,239,98,79,82,196,91,68]},"announce":[],"urlList":[]}}